<?xml version="1.0" encoding="UTF-8"?>
<svg width="793.44598" height="1108.8102" version="1.1" viewBox="0 0 793.44598 1108.8102" xml:space="preserve" xmlns="http://www.w3.org/2000/svg" xmlns:xlink="http://www.w3.org/1999/xlink"><defs><linearGradient id="linearGradient2" x1="488.39264" x2="284.4079" y1="-170.60948" y2="590.67194" gradientUnits="userSpaceOnUse"><stop stop-color="#6e2ad8" offset=".21782178"/><stop stop-color="#8d19c9" offset=".84158415"/></linearGradient><linearGradient id="linearGradient4" x1="541.3728" x2="220.80882" y1="83.038246" y2="803.0368" gradientUnits="userSpaceOnUse"><stop stop-color="#a608c2" offset="0"/><stop stop-color="#fb4ced" offset="1"/></linearGradient></defs><g transform="translate(12.977403,68.974609)"><g stroke-width="1.97972"><path d="m72.022599-68.974609c-46.944204 0-85 38.055796-85 85 1e-6 46.944203 38.055797 84.999999 85 84.999999 28.907141-2.4e-4 55.832701-14.691726 71.476561-38.999999h501.30553c17.80803 0 33.56211 10.526042 40.37695 26.978515 6.81484 16.452474 3.11757 35.032824-9.47461 47.625004l-260.4082 260.4082h-50.79883l-92 92h161.85352c12.19994-2.8e-4 23.90021-4.84647 32.52734-13.47266l273.88086-273.88086c38.71717-38.71716 50.36959-97.3003 29.41601-147.88672-20.95357-50.58641-70.6187-83.771484-125.37304-83.771484h-501.30553c-15.64386-24.308273-42.56942-38.999759-71.476561-39zm0 45.5c21.815247 1e-6 39.500001 17.684753 39.500001 39.5 0 21.815247-17.684754 39.499999-39.500001 39.5-21.815248 0-39.5-17.684752-39.5-39.5 0-21.815248 17.684752-39.5 39.5-39.5z" fill="url(#linearGradient2)"/><path d="m695.46858 722.04333c46.94421 0 85-38.0558 85-85s-38.05579-85-85-85c-28.90713 2.4e-4 -55.83269 14.69173-71.47656 39h-501.30554c-17.80803 0-33.562109-10.52604-40.376949-26.97852-6.81484-16.45247-3.11757-35.03282 9.47461-47.625l260.4082-260.4082h50.79883l92-92h-161.85352c-12.19994 2.8e-4 -23.90021 4.84647-32.52734 13.47266l-273.88086 273.88086c-38.71717 38.71716-50.36961 97.3003-29.41601 147.88672 20.95357 50.58641 70.6187 83.77148 125.37304 83.77148h501.30554c15.64387 24.30827 42.56943 38.99976 71.47656 39zm0-45.5c-21.81524 0-39.5-17.68475-39.5-39.5s17.68476-39.5 39.5-39.5c21.81525 0 39.5 17.68475 39.5 39.5s-17.68475 39.5-39.5 39.5z" fill="url(#linearGradient4)"/></g><g transform="matrix(2.7322702,0,0,2.7322702,-618.04577,-135.49443)"><path d="m237.50061 385.68314h31.034v10.148h-47.082v-8.142l30.798-38.114h-28.32v-10.266h44.132v8.614zm68.08602 11.564c-4.09067 0-7.94533-0.74733-11.564-2.242-3.54-1.57333-6.64733-3.69733-9.322-6.372s-4.79867-5.82133-6.372-9.44c-1.49467-3.61867-2.242-7.47333-2.242-11.564s0.708-7.94533 2.124-11.564c1.49467-3.61867 3.46133-6.76533 5.9-9.44 2.51733-2.67467 5.428-4.75933 8.732-6.254 3.304-1.57333 6.844-2.36 10.62-2.36 3.85467 0 7.39467 0.66867 10.62 2.006 3.304 1.33733 6.136 3.422 8.496 6.254 2.43867 2.832 4.32667 6.45067 5.664 10.856 1.33733 4.32667 2.006 9.51867 2.006 15.576h-42.008c0.55067 2.04533 1.416 3.97267 2.596 5.782 1.18 1.73067 2.55667 3.26467 4.13 4.602 1.652 1.25867 3.46133 2.242 5.428 2.95 2.04533 0.708 4.16933 1.062 6.372 1.062 2.98933 0 5.74267-0.55067 8.26-1.652 2.596-1.10133 4.79867-2.55667 6.608-4.366l7.08 7.08c-2.75333 2.75333-6.136 4.956-10.148 6.608-3.93333 1.652-8.26 2.478-12.98 2.478zm-2.124-48.852c-1.80933 0-3.54 0.354-5.192 1.062-1.57333 0.708-3.068 1.69133-4.484 2.95-1.33733 1.25867-2.51733 2.75333-3.54 4.484-0.944 1.73067-1.652 3.61867-2.124 5.664h29.854c-0.15733-1.888-0.59-3.69733-1.298-5.428s-1.69133-3.22533-2.95-4.484c-1.25867-1.33733-2.75333-2.36-4.484-3.068-1.652-0.78667-3.57933-1.18-5.782-1.18zm91.45008-9.086v56.522h-9.676l-1.77-6.49c-1.96667 2.596-4.484 4.56267-7.552 5.9s-6.17533 2.006-9.322 2.006c-3.93333 0-7.63067-0.74733-11.092-2.242-3.38267-1.57333-6.372-3.69733-8.968-6.372-2.51733-2.67467-4.52333-5.82133-6.018-9.44s-2.242-7.47333-2.242-11.564 0.74733-7.94533 2.242-11.564 3.50067-6.76533 6.018-9.44c2.596-2.67467 5.58533-4.75933 8.968-6.254 3.46133-1.57333 7.15867-2.36 11.092-2.36 3.14667 0 6.17533 0.62933 9.086 1.888 2.91067 1.18 5.50667 3.068 7.788 5.664l1.77-6.254zm-28.32 47.79c2.28133 0 4.44467-0.51133 6.49-1.534s3.81533-2.39933 5.31-4.13c1.49467-1.80933 2.67467-3.894 3.54-6.254s1.298-4.87733 1.298-7.552-0.43267-5.192-1.298-7.552-2.04533-4.40533-3.54-6.136c-1.49467-1.80933-3.26467-3.22533-5.31-4.248s-4.20867-1.534-6.49-1.534-4.44467 0.51133-6.49 1.534-3.81533 2.43867-5.31 4.248c-1.49467 1.73067-2.67467 3.776-3.54 6.136s-1.298 4.87733-1.298 7.552 0.43267 5.192 1.298 7.552 2.04533 4.44467 3.54 6.254c1.49467 1.73067 3.26467 3.10733 5.31 4.13s4.20867 1.534 6.49 1.534zm66.31594-3.068c0.708-0.62933 1.33733-1.33733 1.888-2.124s0.826-1.69133 0.826-2.714c0-1.25867-0.472-2.32067-1.416-3.186-0.86533-0.86533-1.96667-1.57333-3.304-2.124-1.25867-0.62933-2.596-1.10133-4.012-1.416s-2.596-0.59-3.54-0.826c-2.596-0.62933-5.03467-1.37667-7.316-2.242-2.28133-0.944-4.28733-2.04533-6.018-3.304-1.652-1.33733-2.98933-2.87133-4.012-4.602-0.944-1.80933-1.416-3.93333-1.416-6.372 0-2.28133 0.55067-4.40533 1.652-6.372 1.10133-2.04533 2.55667-3.81533 4.366-5.31 1.888-1.57333 4.05133-2.79267 6.49-3.658 2.51733-0.944 5.15267-1.416 7.906-1.416 2.43867 0 4.75933 0.354 6.962 1.062s4.16933 1.69133 5.9 2.95c1.80933 1.18 3.304 2.63533 4.484 4.366 1.25867 1.73067 2.08467 3.658 2.478 5.782l-10.266 2.478c-0.472-1.888-1.49467-3.46133-3.068-4.72s-3.73667-1.888-6.49-1.888c-0.944 0-1.92733 0.15733-2.95 0.472-1.02267 0.236-1.96667 0.62933-2.832 1.18s-1.61267 1.21933-2.242 2.006c-0.55067 0.78667-0.826 1.69133-0.826 2.714 0 1.10133 0.31467 2.04533 0.944 2.832 0.708 0.78667 1.534 1.45533 2.478 2.006 0.944 0.472 1.96667 0.86533 3.068 1.18s2.124 0.59 3.068 0.826c4.16933 1.02267 7.63067 2.124 10.384 3.304s4.956 2.478 6.608 3.894 2.79267 2.98933 3.422 4.72c0.708 1.652 1.062 3.54 1.062 5.664 0 2.51733-0.59 4.87733-1.77 7.08-1.10133 2.20267-2.67467 4.13-4.72 5.782-1.96667 1.57333-4.366 2.832-7.198 3.776-2.75333 0.86533-5.74267 1.298-8.968 1.298-4.87733 0-9.24333-1.18-13.098-3.54-3.776-2.43867-6.33267-5.664-7.67-9.676l9.676-4.366c1.25867 2.75333 2.87133 4.64133 4.838 5.664 1.96667 0.944 4.20867 1.416 6.726 1.416 3.14667 0 5.782-0.86533 7.906-2.596zm42.95203 5.428-23.954-50.15h12.744l17.464 36.698 17.11-36.698h12.626l-41.69593 90.40865h-12.626z" fill="#fff" style="white-space:pre" aria-label="zeasy"/><path transform="matrix(.74970228 0 0 .74970228 139.99846 -84.750088)" d="m181.95488 669.43958q1.93199 1.15 2.94399 2.944t1.012 4.14q0 2.208-1.058 4.14-1.058 1.886-2.99 3.358-1.748 1.334-4.002 2.07-2.208 0.69-4.69199 0.736-2.48401 0-4.738-0.69-2.25401-0.69-4.00201-2.07-2.622-1.978-3.588-4.784l6.44-2.99q0 0.46 0.322 1.15t1.012 1.334 1.794 1.104 2.714 0.46q1.288 0 2.254-0.322 1.012-0.322 1.656-0.782 0.69-0.506 1.012-1.104 0.368-0.644 0.368-1.288 0-0.736-0.50599-1.38-0.46001-0.644-1.47201-1.012-1.84-0.644-3.91-1.058-2.024-0.46-3.956-1.104-1.932-0.69-3.588-1.794t-2.622-3.082q-0.874-1.748-0.874-3.726 0-2.208 1.012-4.278 1.058-2.07 2.852-3.496 1.702-1.334 3.818-2.024 2.116-0.736 4.462-0.736t4.462 0.69q2.162 0.69 3.86401 2.024 1.65599 1.242 2.62199 2.898l-5.244 3.588q-0.966-1.334-2.43799-2.116-1.42601-0.828-3.22001-0.828-2.484 0-3.864 1.104-1.334 1.104-1.334 2.898 0 0.828 0.736 1.472 0.782 0.644 1.978 1.15 1.242 0.506 2.76 0.92 1.518 0.368 2.99 0.782 1.518 0.368 2.852 0.782t2.16201 0.92zm22.99996-16.284q3.312 0 6.256 1.334t5.106 3.634q2.208 2.3 3.45 5.336 1.288 3.036 1.288 6.486 0 3.404-1.288 6.486-1.242 3.082-3.45 5.382-2.162 2.3-5.106 3.68-2.944 1.334-6.256 1.334t-6.256-1.334q-2.944-1.38-5.106-3.68t-3.45-5.382q-1.242-3.082-1.242-6.486 0-3.45 1.242-6.486 1.288-3.036 3.45-5.336t5.106-3.634 6.256-1.334zm0 26.726q1.886 0 3.542-0.782t2.898-2.116q1.242-1.38 1.932-3.174 0.736-1.794 0.736-3.864t-0.736-3.864q-0.69-1.84-1.932-3.174-1.242-1.38-2.898-2.162t-3.542-0.782-3.542 0.782-2.898 2.162q-1.242 1.334-1.978 3.174-0.69 1.794-0.69 3.864t0.69 3.864q0.736 1.794 1.978 3.174 1.242 1.334 2.898 2.116t3.542 0.782zm19.77997-26.266h20.378v6.348h-13.386v5.888h11.776v6.348h-11.776v14.03h-6.992zm22.03401 0h23.598v6.348h-8.326v26.266h-6.946v-26.266h-8.326zm67.114 0h7.268l-9.2 32.614h-8.648l-6.716-21.942-6.716 21.942h-8.556l-9.2-32.614h7.268l6.44 24.656 7.406-24.656h6.716l7.452 24.84zm27.04799 0 13.616 32.614h-7.544l-2.944-6.992h-13.846l-2.898 6.992h-7.59l13.616-32.614zm0.506 19.274-4.278-10.258-4.278 10.258zm39.74403-9.568q0 1.564-0.46 2.99-0.414 1.38-1.196 2.576-0.782 1.15-1.886 2.07-1.104 0.874-2.392 1.426l10.81 13.846h-8.142l-10.074-13.156h-3.128v13.156h-6.992v-32.614h14.076q1.932 0 3.634 0.782 1.748 0.736 2.99 2.07 1.288 1.288 2.024 3.082 0.736 1.748 0.736 3.772zm-10.258 3.404q1.334 0 2.3-0.966 0.966-1.012 0.966-2.438 0-1.38-0.966-2.346-0.966-1.012-2.3-1.012h-6.21v6.762zm18.44602-13.11h20.378v6.348h-13.386v5.888h11.776v6.348h-11.776v7.728h13.386v6.302h-20.378z" fill="#fe4eee" style="white-space:pre" aria-label="SOFTWARE"/></g></g></svg>
